COMMAND:
ffmpeg -y -hide_banner -ss 38.0 -t 3.888 -i /Volumes/AIGC/AI-CUT/projects/0622/素材/视频/工具使用/1.mp4 -vf split=2[fg][bg];[bg]scale=1280:720:force_original_aspect_ratio=increase,crop=1280:720,gblur=sigma=24[bg];[fg]scale=1280:720:force_original_aspect_ratio=decrease[fg];[bg][fg]overlay=(W-w)/2:(H-h)/2,fps=30,format=yuv420p -an -c:v libx264 -preset veryfast -crf 20 -movflags +faststart /Volumes/AIGC/AI-CUT/projects/0622/结果/文案8/auto-edit/edit/render_segments/segment_05_mc-05.mp4

STDOUT:


STDERR:
Input #0, mov,mp4,m4a,3gp,3g2,mj2, from '/Volumes/AIGC/AI-CUT/projects/0622/素材/视频/工具使用/1.mp4':
  Metadata:
    major_brand     : isom
    minor_version   : 512
    compatible_brands: isomiso2avc1mp41
    encoder         : Lavf59.14.100
  Duration: 00:00:52.01, start: 0.000000, bitrate: 1754 kb/s
  Stream #0:0[0x1](und): Video: h264 (High) (avc1 / 0x31637661), yuv420p(tv, bt709/smpte432/bt709, progressive), 960x720, 1691 kb/s, 30 fps, 30 tbr, 90k tbn (default)
    Metadata:
      handler_name    : VideoHandler
      vendor_id       : [0][0][0][0]
  Stream #0:1[0x2](und): Audio: aac (HE-AAC) (mp4a / 0x6134706D), 44100 Hz, stereo, fltp, 56 kb/s (default)
    Metadata:
      handler_name    : SoundHandler
      vendor_id       : [0][0][0][0]
Stream mapping:
  Stream #0:0 -> #0:0 (h264 (native) -> h264 (libx264))
Press [q] to stop, [?] for help
[libx264 @ 0xb30824e00] using cpu capabilities: ARMv8 NEON DotProd I8MM
[libx264 @ 0xb30824e00] profile High, level 3.1, 4:2:0, 8-bit
[libx264 @ 0xb30824e00] 264 - core 165 r3222 b35605a - H.264/MPEG-4 AVC codec - Copyleft 2003-2025 - http://www.videolan.org/x264.html - options: cabac=1 ref=1 deblock=1:0:0 analyse=0x3:0x113 me=hex subme=2 psy=1 psy_rd=1.00:0.00 mixed_ref=0 me_range=16 chroma_me=1 trellis=0 8x8dct=1 cqm=0 deadzone=21,11 fast_pskip=1 chroma_qp_offset=0 threads=15 lookahead_threads=5 sliced_threads=0 nr=0 decimate=1 interlaced=0 bluray_compat=0 constrained_intra=0 bframes=3 b_pyramid=2 b_adapt=1 b_bias=0 direct=1 weightb=1 open_gop=0 weightp=1 keyint=250 keyint_min=25 scenecut=40 intra_refresh=0 rc_lookahead=10 rc=crf mbtree=1 crf=20.0 qcomp=0.60 qpmin=0 qpmax=69 qpstep=4 ip_ratio=1.40 aq=1:1.00
Output #0, mp4, to '/Volumes/AIGC/AI-CUT/projects/0622/结果/文案8/auto-edit/edit/render_segments/segment_05_mc-05.mp4':
  Metadata:
    major_brand     : isom
    minor_version   : 512
    compatible_brands: isomiso2avc1mp41
    encoder         : Lavf62.3.100
  Stream #0:0(und): Video: h264 (avc1 / 0x31637661), yuv420p(tv, bt709/smpte432/bt709, progressive), 1280x720, q=2-31, 30 fps, 15360 tbn (default)
    Metadata:
      encoder         : Lavc62.11.100 libx264
      handler_name    : VideoHandler
      vendor_id       : [0][0][0][0]
    Side data:
      cpb: bitrate max/min/avg: 0/0/0 buffer size: 0 vbv_delay: N/A
frame=   13 fps=0.0 q=26.0 size=       0KiB time=00:00:00.36 bitrate=   1.0kbits/s speed=0.724x elapsed=0:00:00.50    
frame=   65 fps= 64 q=26.0 size=     768KiB time=00:00:02.10 bitrate=2996.1kbits/s speed=2.08x elapsed=0:00:01.00    
[mp4 @ 0xb31047c00] Starting second pass: moving the moov atom to the beginning of the file
[out#0/mp4 @ 0xb30c203c0] video:1119KiB audio:0KiB subtitle:0KiB other streams:0KiB global headers:0KiB muxing overhead: 0.199164%
frame=  117 fps= 98 q=-1.0 Lsize=    1122KiB time=00:00:03.83 bitrate=2397.0kbits/s speed=3.21x elapsed=0:00:01.19    
[libx264 @ 0xb30824e00] frame I:1     Avg QP:18.77  size: 62065
[libx264 @ 0xb30824e00] frame P:33    Avg QP:19.63  size: 22697
[libx264 @ 0xb30824e00] frame B:83    Avg QP:22.89  size:  4031
[libx264 @ 0xb30824e00] consecutive B-frames:  2.6%  6.8%  5.1% 85.5%
[libx264 @ 0xb30824e00] mb I  I16..4: 33.3% 25.4% 41.3%
[libx264 @ 0xb30824e00] mb P  I16..4: 13.4% 11.7%  2.4%  P16..4: 28.3% 13.4%  7.2%  0.0%  0.0%    skip:23.5%
[libx264 @ 0xb30824e00] mb B  I16..4:  1.6%  0.8%  0.1%  B16..8: 18.9%  5.7%  0.7%  direct: 4.0%  skip:68.1%  L0:36.4% L1:48.6% BI:15.0%
[libx264 @ 0xb30824e00] 8x8 transform intra:39.3% inter:22.7%
[libx264 @ 0xb30824e00] coded y,uvDC,uvAC intra: 29.0% 30.7% 8.5% inter: 7.6% 6.1% 0.5%
[libx264 @ 0xb30824e00] i16 v,h,dc,p: 48% 29% 14%  9%
[libx264 @ 0xb30824e00] i8 v,h,dc,ddl,ddr,vr,hd,vl,hu: 16% 39% 31%  1%  3%  2%  3%  2%  2%
[libx264 @ 0xb30824e00] i4 v,h,dc,ddl,ddr,vr,hd,vl,hu: 27% 40% 18%  1%  4%  2%  3%  2%  3%
[libx264 @ 0xb30824e00] i8c dc,h,v,p: 60% 20% 17%  3%
[libx264 @ 0xb30824e00] Weighted P-Frames: Y:0.0% UV:0.0%
[libx264 @ 0xb30824e00] kb/s:2349.95
